# xmcd
#
# Track frame offsets: 
#        150
#        20694
#        42637
#        62163
#        79379
#        89899
#        109119
#        127044
#        142514
#        159460
#        165201
#        180283
#
# Disc length: 2628 seconds
#
# Revision: 1
# Processed by: cddbd v1.5.2PL0 Copyright (c) Steve Scherf et al.
# Submitted via: ExactAudioCopy v1.0b3
#
DISCID=9b0a420c
DTITLE=Marshall and Alexander - Best of CD2
DYEAR=2011
DGENRE=Classical
TTITLE0=La Stella Piu Grande (Radio Edit)
TTITLE1=Passione (Jay's Song) (Radio Edit)
TTITLE2=Solo Tu (Radio Edit)
TTITLE3=Love Is More (Radio Edit)
TTITLE4=You Are (Radio Edit)
TTITLE5=Miserere (Radio Edit)
TTITLE6=Why Don't You Stay Tonight (Radio Edit)
TTITLE7=In Italy (Radio Edit)
TTITLE8=Ich Will Frei Sein (Radio Edit)
TTITLE9=Undecided (Radio Edit)
TTITLE10=Glauben (Radio Edit)
TTITLE11=Le Stagioni Che Verranno (Radio Edit)
EXTD=
EXTT0=
EXTT1=
EXTT2=
EXTT3=
EXTT4=
EXTT5=
EXTT6=
EXTT7=
EXTT8=
EXTT9=
EXTT10=
EXTT11=
PLAYORDER=
